<svg version="1.1" viewBox="0.0 0.0 290.0 186.0" fill="none" stroke="none" stroke-linecap="square" stroke-miterlimit="10" xmlns:xlink="http://www.w3.org/1999/xlink" xmlns="http://www.w3.org/2000/svg"><clipPath id="p.0"><path d="m0 0l290.0 0l0 186.0l-290.0 0l0 -186.0z" clip-rule="nonzero"/></clipPath><g clip-path="url(#p.0)"><path fill="#000000" fill-opacity="0.0" d="m0 0l290.0 0l0 186.0l-290.0 0z" fill-rule="evenodd"/><path fill="#ff9900" d="m3.5513384 145.63277l0 0c0 -18.403694 14.355091 -33.322838 32.062992 -33.322838l0 0c8.503635 0 16.658981 3.510788 22.671959 9.760033c6.0129814 6.249237 9.391033 14.725037 9.391033 23.562805l0 0c0 18.403687 -14.355091 33.32283 -32.062992 33.32283l0 0c-17.707901 0 -32.062992 -14.919144 -32.062992 -33.32283z" fill-rule="evenodd"/><path stroke="#ff9900" stroke-width="1.0" stroke-linejoin="round" stroke-linecap="butt" d="m3.5513384 145.63277l0 0c0 -18.403694 14.355091 -33.322838 32.062992 -33.322838l0 0c8.503635 0 16.658981 3.510788 22.671959 9.760033c6.0129814 6.249237 9.391033 14.725037 9.391033 23.562805l0 0c0 18.403687 -14.355091 33.32283 -32.062992 33.32283l0 0c-17.707901 0 -32.062992 -14.919144 -32.062992 -33.32283z" fill-rule="evenodd"/><path fill="#ff9900" d="m182.79396 127.250656l0 0c0 -28.562256 23.203644 -51.716537 51.826767 -51.716537l0 0c13.745316 0 26.927673 5.4486923 36.647064 15.147423c9.719421 9.69873 15.179718 22.853035 15.179718 36.569115l0 0c0 28.562256 -23.203644 51.716537 -51.826782 51.716537l0 0c-28.623123 0 -51.826767 -23.154282 -51.826767 -51.716537z" fill-rule="evenodd"/><path stroke="#ff9900" stroke-width="1.0" stroke-linejoin="round" stroke-linecap="butt" d="m182.79396 127.250656l0 0c0 -28.562256 23.203644 -51.716537 51.826767 -51.716537l0 0c13.745316 0 26.927673 5.4486923 36.647064 15.147423c9.719421 9.69873 15.179718 22.853035 15.179718 36.569115l0 0c0 28.562256 -23.203644 51.716537 -51.826782 51.716537l0 0c-28.623123 0 -51.826767 -23.154282 -51.826767 -51.716537z" fill-rule="evenodd"/><path fill="#ff9900" d="m39.45538 92.99869l0 0c0 -47.479095 38.489414 -85.968506 85.968506 -85.968506l0 0c22.80027 0 44.666695 9.057369 60.788918 25.17959c16.122223 16.122223 25.179596 37.98865 25.179596 60.788914l0 0c0 47.479095 -38.48941 85.968506 -85.96851 85.968506l0 0c-47.479088 0 -85.968506 -38.48941 -85.968506 -85.968506z" fill-rule="evenodd"/><path stroke="#ff9900" stroke-width="1.0" stroke-linejoin="round" stroke-linecap="butt" d="m39.45538 92.99869l0 0c0 -47.479095 38.489414 -85.968506 85.968506 -85.968506l0 0c22.80027 0 44.666695 9.057369 60.788918 25.17959c16.122223 16.122223 25.179596 37.98865 25.179596 60.788914l0 0c0 47.479095 -38.48941 85.968506 -85.96851 85.968506l0 0c-47.479088 0 -85.968506 -38.48941 -85.968506 -85.968506z" fill-rule="evenodd"/><path fill="#ff9900" d="m39.45538 133.17192l198.4252 0l0 45.795273l-198.4252 0z" fill-rule="evenodd"/><path stroke="#ff9900" stroke-width="1.0" stroke-linejoin="round" stroke-linecap="butt" d="m39.45538 133.17192l198.4252 0l0 45.795273l-198.4252 0z" fill-rule="evenodd"/></g></svg>