<svg version="1.1" viewBox="0.0 0.0 404.0 407.0" fill="none" stroke="none" stroke-linecap="square" stroke-miterlimit="10" xmlns:xlink="http://www.w3.org/1999/xlink" xmlns="http://www.w3.org/2000/svg"><clipPath id="p.0"><path d="m0 0l404.0 0l0 407.0l-404.0 0l0 -407.0z" clip-rule="nonzero"/></clipPath><g clip-path="url(#p.0)"><path fill="#000000" fill-opacity="0.0" d="m0 0l404.0 0l0 407.0l-404.0 0z" fill-rule="evenodd"/><path fill="#ffffff" d="m8.770341 203.5l0 0c0 -106.71707 86.51128 -193.22835 193.22835 -193.22835l0 0c51.247345 0 100.39572 20.35793 136.63309 56.595276c36.237335 36.237343 56.595245 85.38573 56.595245 136.63307l0 0c0 106.71707 -86.51126 193.22833 -193.22833 193.22833l0 0c-106.71707 0 -193.22835 -86.51126 -193.22835 -193.22833z" fill-rule="evenodd"/><path stroke="#393939" stroke-width="8.0" stroke-linejoin="round" stroke-linecap="butt" d="m8.770341 203.5l0 0c0 -106.71707 86.51128 -193.22835 193.22835 -193.22835l0 0c51.247345 0 100.39572 20.35793 136.63309 56.595276c36.237335 36.237343 56.595245 85.38573 56.595245 136.63307l0 0c0 106.71707 -86.51126 193.22833 -193.22833 193.22833l0 0c-106.71707 0 -193.22835 -86.51126 -193.22835 -193.22833z" fill-rule="evenodd"/><path fill="#ff9900" d="m37.26509 239.54474l0 0c0 -21.439087 16.724106 -38.81891 37.354332 -38.81891l0 0c9.906982 0 19.408203 4.0898438 26.413498 11.369797c7.005295 7.279953 10.940834 17.153702 10.940834 27.449112l0 0c0 21.439087 -16.724106 38.81888 -37.354332 38.81888l0 0c-20.630226 0 -37.354332 -17.379791 -37.354332 -38.81888z" fill-rule="evenodd"/><path stroke="#ff9900" stroke-width="1.0" stroke-linejoin="round" stroke-linecap="butt" d="m37.26509 239.54474l0 0c0 -21.439087 16.724106 -38.81891 37.354332 -38.81891l0 0c9.906982 0 19.408203 4.0898438 26.413498 11.369797c7.005295 7.279953 10.940834 17.153702 10.940834 27.449112l0 0c0 21.439087 -16.724106 38.81888 -37.354332 38.81888l0 0c-20.630226 0 -37.354332 -17.379791 -37.354332 -38.81888z" fill-rule="evenodd"/><path fill="#ff9900" d="m246.04265 218.1107l0 0c0 -33.25885 27.018051 -60.220474 60.34645 -60.220474l0 0c16.004883 0 31.354248 6.344635 42.671387 17.638168c11.317169 11.293533 17.67508 26.61084 17.67508 42.582306l0 0c0 33.25885 -27.018036 60.220474 -60.346466 60.220474l0 0c-33.3284 0 -60.34645 -26.961624 -60.34645 -60.220474z" fill-rule="evenodd"/><path stroke="#ff9900" stroke-width="1.0" stroke-linejoin="round" stroke-linecap="butt" d="m246.04265 218.1107l0 0c0 -33.25885 27.018051 -60.220474 60.34645 -60.220474l0 0c16.004883 0 31.354248 6.344635 42.671387 17.638168c11.317169 11.293533 17.67508 26.61084 17.67508 42.582306l0 0c0 33.25885 -27.018036 60.220474 -60.346466 60.220474l0 0c-33.3284 0 -60.34645 -26.961624 -60.34645 -60.220474z" fill-rule="evenodd"/><path fill="#ff9900" d="m79.085266 178.24016l0 0c0 -55.306755 44.834984 -100.14173 100.14174 -100.14173l0 0c26.559235 0 52.03067 10.550613 70.8109 29.330833c18.780212 18.78022 29.330841 44.251663 29.330841 70.8109l0 0c0 55.306747 -44.83499 100.14174 -100.14174 100.14174l0 0c-55.306755 0 -100.14174 -44.83499 -100.14174 -100.14174z" fill-rule="evenodd"/><path stroke="#ff9900" stroke-width="1.0" stroke-linejoin="round" stroke-linecap="butt" d="m79.085266 178.24016l0 0c0 -55.306755 44.834984 -100.14173 100.14174 -100.14173l0 0c26.559235 0 52.03067 10.550613 70.8109 29.330833c18.780212 18.78022 29.330841 44.251663 29.330841 70.8109l0 0c0 55.306747 -44.83499 100.14174 -100.14174 100.14174l0 0c-55.306755 0 -100.14174 -44.83499 -100.14174 -100.14174z" fill-rule="evenodd"/><path fill="#ff9900" d="m79.085266 225.02539l231.1181 0l0 53.35434l-231.1181 0z" fill-rule="evenodd"/><path stroke="#ff9900" stroke-width="1.0" stroke-linejoin="round" stroke-linecap="butt" d="m79.085266 225.02539l231.1181 0l0 53.35434l-231.1181 0z" fill-rule="evenodd"/></g></svg>