<svg version="1.1" viewBox="0.0 0.0 404.0 407.0" fill="none" stroke="none" stroke-linecap="square" stroke-miterlimit="10" xmlns:xlink="http://www.w3.org/1999/xlink" xmlns="http://www.w3.org/2000/svg"><clipPath id="p.0"><path d="m0 0l404.0 0l0 407.0l-404.0 0l0 -407.0z" clip-rule="nonzero"/></clipPath><g clip-path="url(#p.0)"><path fill="#000000" fill-opacity="0.0" d="m0 0l404.0 0l0 407.0l-404.0 0z" fill-rule="evenodd"/><path fill="#ffffff" d="m8.770341 203.5l0 0c0 -106.71707 86.51128 -193.22835 193.22835 -193.22835l0 0c51.247345 0 100.39572 20.35793 136.63309 56.595276c36.237335 36.237343 56.595245 85.38573 56.595245 136.63307l0 0c0 106.71707 -86.51126 193.22833 -193.22833 193.22833l0 0c-106.71707 0 -193.22835 -86.51126 -193.22835 -193.22833z" fill-rule="evenodd"/><path stroke="#393939" stroke-width="8.0" stroke-linejoin="round" stroke-linecap="butt" d="m8.770341 203.5l0 0c0 -106.71707 86.51128 -193.22835 193.22835 -193.22835l0 0c51.247345 0 100.39572 20.35793 136.63309 56.595276c36.237335 36.237343 56.595245 85.38573 56.595245 136.63307l0 0c0 106.71707 -86.51126 193.22833 -193.22833 193.22833l0 0c-106.71707 0 -193.22835 -86.51126 -193.22835 -193.22833z" fill-rule="evenodd"/><path fill="#ff9900" d="m66.88205 214.32306l0 0c0 -18.403702 14.355087 -33.322845 32.06299 -33.322845l0 0c8.503639 0 16.658981 3.510788 22.671959 9.76004c6.0129776 6.249237 9.391029 14.725037 9.391029 23.562805l0 0c0 18.403687 -14.355087 33.32283 -32.06299 33.32283l0 0c-17.707901 0 -32.06299 -14.919144 -32.06299 -33.32283z" fill-rule="evenodd"/><path stroke="#ff9900" stroke-width="1.0" stroke-linejoin="round" stroke-linecap="butt" d="m66.88205 214.32306l0 0c0 -18.403702 14.355087 -33.322845 32.06299 -33.322845l0 0c8.503639 0 16.658981 3.510788 22.671959 9.76004c6.0129776 6.249237 9.391029 14.725037 9.391029 23.562805l0 0c0 18.403687 -14.355087 33.32283 -32.06299 33.32283l0 0c-17.707901 0 -32.06299 -14.919144 -32.06299 -33.32283z" fill-rule="evenodd"/><path fill="#ff9900" d="m246.12466 195.94095l0 0c0 -28.562256 23.203644 -51.716537 51.826782 -51.716537l0 0c13.7453 0 26.927643 5.4486847 36.647064 15.147415c9.719391 9.69873 15.179718 22.853043 15.179718 36.569122l0 0c0 28.562256 -23.203644 51.716537 -51.826782 51.716537l0 0c-28.623138 0 -51.826782 -23.154282 -51.826782 -51.716537z" fill-rule="evenodd"/><path stroke="#ff9900" stroke-width="1.0" stroke-linejoin="round" stroke-linecap="butt" d="m246.12466 195.94095l0 0c0 -28.562256 23.203644 -51.716537 51.826782 -51.716537l0 0c13.7453 0 26.927643 5.4486847 36.647064 15.147415c9.719391 9.69873 15.179718 22.853043 15.179718 36.569122l0 0c0 28.562256 -23.203644 51.716537 -51.826782 51.716537l0 0c-28.623138 0 -51.826782 -23.154282 -51.826782 -51.716537z" fill-rule="evenodd"/><path fill="#ff9900" d="m102.78609 161.68898l0 0c0 -47.479095 38.48941 -85.968506 85.968506 -85.968506l0 0c22.800262 0 44.666687 9.057365 60.78891 25.179588c16.122238 16.122223 25.17958 37.988655 25.17958 60.788918l0 0c0 47.479095 -38.489395 85.968506 -85.96849 85.968506l0 0c-47.479095 0 -85.968506 -38.48941 -85.968506 -85.968506z" fill-rule="evenodd"/><path stroke="#ff9900" stroke-width="1.0" stroke-linejoin="round" stroke-linecap="butt" d="m102.78609 161.68898l0 0c0 -47.479095 38.48941 -85.968506 85.968506 -85.968506l0 0c22.800262 0 44.666687 9.057365 60.78891 25.179588c16.122238 16.122223 25.17958 37.988655 25.17958 60.788918l0 0c0 47.479095 -38.489395 85.968506 -85.96849 85.968506l0 0c-47.479095 0 -85.968506 -38.48941 -85.968506 -85.968506z" fill-rule="evenodd"/><path fill="#ff9900" d="m102.78609 201.8622l198.42519 0l0 45.795288l-198.42519 0z" fill-rule="evenodd"/><path stroke="#ff9900" stroke-width="1.0" stroke-linejoin="round" stroke-linecap="butt" d="m102.78609 201.8622l198.42519 0l0 45.795288l-198.42519 0z" fill-rule="evenodd"/><path fill="#000000" fill-opacity="0.0" d="m-1.6233596 247.65749l407.24408 0l0 57.133865l-407.24408 0z" fill-rule="evenodd"/><path fill="#393939" d="m72.87945 291.03067q-3.40625 0 -6.734375 -1.234375q-3.3125 -1.25 -5.90625 -3.453125l3.84375 -5.0q2.5625 2.078125 4.71875 2.984375q2.15625 0.890625 4.59375 0.890625q1.609375 0 2.71875 -0.3125q1.125 -0.328125 1.71875 -0.9375q0.609375 -0.625 0.609375 -1.46875q0 -1.15625 -0.890625 -1.796875q-0.875 -0.640625 -3.0 -1.0l-6.15625 -1.078125q-3.390625 -0.59375 -5.234375 -2.59375q-1.84375 -2.0 -1.84375 -5.09375q0 -2.71875 1.375 -4.671875q1.390625 -1.953125 3.96875 -3.0q2.578125 -1.046875 6.140625 -1.046875q3.125 0 6.28125 1.0625q3.15625 1.0625 5.46875 2.9375l-3.625 5.09375q-4.328125 -3.328125 -8.609375 -3.328125q-1.390625 0 -2.421875 0.296875q-1.015625 0.296875 -1.5625 0.84375q-0.53125 0.546875 -0.53125 1.296875q0 1.046875 0.78125 1.609375q0.78125 0.546875 2.53125 0.875l5.8125 0.953125q4.03125 0.640625 6.125 2.6875q2.109375 2.03125 2.109375 5.28125q0 2.84375 -1.484375 4.90625q-1.484375 2.046875 -4.25 3.171875q-2.75 1.125 -6.546875 1.125zm15.431854 -0.40625l0 -28.0l14.765625 0q2.765625 0 4.90625 1.1875q2.140625 1.171875 3.375 3.21875q1.234375 2.03125 1.234375 4.671875q0 2.515625 -1.234375 4.546875q-1.234375 2.015625 -3.40625 3.171875q-2.15625 1.15625 -4.875 1.15625l-7.875 0l0 10.046875l-6.890625 0zm6.890625 -15.71875l7.078125 0q1.515625 0 2.4375 -0.875q0.921875 -0.890625 0.921875 -2.28125q0 -1.4375 -0.921875 -2.34375q-0.921875 -0.90625 -2.4375 -0.90625l-7.078125 0l0 6.40625zm20.909348 15.71875l0 -28.0l22.093758 0l0 5.953125l-15.203133 0l0 5.046875l10.031258 0l0 5.765625l-10.031258 0l0 5.28125l15.359383 0l0 5.953125l-22.250008 0zm24.08622 0l11.484375 -28.0l7.875 0l11.328125 28.0l-7.453125 0l-2.546875 -6.765625l-10.921875 0l-2.609375 6.765625l-7.15625 0zm11.84375 -12.234375l6.796875 0l-3.359375 -8.96875l-3.4375 8.96875zm20.869965 12.234375l0 -28.0l6.890625 0l0 12.234375l11.3125 -12.234375l8.328125 0l-12.96875 13.15625l13.6875 14.84375l-9.125 0l-11.234375 -12.84375l0 12.84375l-6.890625 0zm43.20685 0.40625q-3.203125 0 -5.9375 -1.09375q-2.734375 -1.109375 -4.78125 -3.0625q-2.046875 -1.96875 -3.1875 -4.578125q-1.140625 -2.625 -1.140625 -5.671875q0 -3.078125 1.140625 -5.6875q1.140625 -2.625 3.203125 -4.578125q2.0625 -1.96875 4.796875 -3.0625q2.75 -1.109375 5.90625 -1.109375q2.328125 0 4.5625 0.6875q2.234375 0.671875 4.125 1.890625q1.90625 1.21875 3.1875 2.90625l-4.640625 4.546875q-1.46875 -1.875 -3.296875 -2.796875q-1.8125 -0.921875 -3.9375 -0.921875q-1.671875 0 -3.140625 0.625q-1.453125 0.625 -2.546875 1.703125q-1.078125 1.078125 -1.671875 2.5625q-0.59375 1.46875 -0.59375 3.234375q0 1.71875 0.609375 3.1875q0.625 1.453125 1.71875 2.5625q1.109375 1.09375 2.609375 1.703125q1.5 0.59375 3.25 0.59375q2.046875 0 3.78125 -0.875q1.75 -0.890625 3.140625 -2.609375l4.53125 4.4375q-1.28125 1.640625 -3.171875 2.859375q-1.875 1.21875 -4.078125 1.890625q-2.203125 0.65625 -4.4375 0.65625zm14.593094 -0.40625l0 -28.0l6.890625 0l0 21.921875l14.75 0l0 6.078125l-21.640625 0zm37.648712 0.4375q-3.15625 0 -5.875 -1.09375q-2.71875 -1.109375 -4.765625 -3.078125q-2.046875 -1.984375 -3.1875 -4.59375q-1.1406097 -2.625 -1.1406097 -5.671875q0 -3.046875 1.1406097 -5.65625q1.140625 -2.625 3.1875 -4.59375q2.046875 -1.984375 4.765625 -3.078125q2.71875 -1.109375 5.875 -1.109375q3.15625 0 5.875 1.109375q2.71875 1.09375 4.75 3.078125q2.046875 1.96875 3.1875 4.59375q1.140625 2.609375 1.140625 5.65625q0 3.046875 -1.140625 5.671875q-1.140625 2.609375 -3.1875 4.59375q-2.03125 1.96875 -4.75 3.078125q-2.71875 1.09375 -5.875 1.09375zm0 -6.3125q1.671875 0 3.109375 -0.625q1.453125 -0.625 2.5 -1.703125q1.0625 -1.078125 1.65625 -2.578125q0.609375 -1.5 0.609375 -3.21875q0 -1.765625 -0.609375 -3.234375q-0.59375 -1.484375 -1.65625 -2.5625q-1.046875 -1.078125 -2.5 -1.703125q-1.4375 -0.625 -3.109375 -0.625q-1.6875 0 -3.125 0.625q-1.4375 0.625 -2.5 1.703125q-1.0625 1.078125 -1.65625 2.5625q-0.59375 1.46875 -0.59375 3.1875q0 1.765625 0.59375 3.265625q0.59375 1.5 1.65625 2.578125q1.0625 1.078125 2.5 1.703125q1.4375 0.625 3.125 0.625zm30.919373 6.28125q-3.875 0 -6.734375 -1.546875q-2.859375 -1.546875 -4.421875 -4.375q-1.5625 -2.84375 -1.5625 -6.6875l0 -15.796875l6.875 0l0 15.796875q0 1.890625 0.71875 3.3125q0.71875 1.40625 2.0625 2.171875q1.34375 0.765625 3.109375 0.765625q1.796875 0 3.09375 -0.765625q1.296875 -0.765625 2.015625 -2.171875q0.71875 -1.421875 0.71875 -3.3125l0 -15.796875l6.890625 0l0 15.796875q0 3.796875 -1.59375 6.640625q-1.578125 2.84375 -4.4375 4.40625q-2.859375 1.5625 -6.734375 1.5625zm23.882446 -6.484375l4.3125 0q1.640625 0 3.0625 -0.59375q1.421875 -0.609375 2.5 -1.6875q1.078125 -1.078125 1.671875 -2.5q0.609375 -1.421875 0.609375 -3.0625q0 -1.671875 -0.609375 -3.125q-0.59375 -1.46875 -1.671875 -2.546875q-1.078125 -1.09375 -2.5 -1.703125q-1.421875 -0.625 -3.0625 -0.625l-4.3125 0l0 15.84375zm-6.890625 6.078125l0 -28.0l11.375 0q3.109375 0 5.78125 1.078125q2.6875 1.078125 4.703125 3.0q2.03125 1.921875 3.171875 4.484375q1.140625 2.5625 1.140625 5.515625q0 2.921875 -1.140625 5.453125q-1.140625 2.515625 -3.171875 4.421875q-2.015625 1.890625 -4.703125 2.96875q-2.671875 1.078125 -5.78125 1.078125l-11.375 0z" fill-rule="nonzero"/></g></svg>