<svg version="1.1" viewBox="0.0 0.0 839.0 100.0" fill="none" stroke="none" stroke-linecap="square" stroke-miterlimit="10" xmlns:xlink="http://www.w3.org/1999/xlink" xmlns="http://www.w3.org/2000/svg"><clipPath id="p.0"><path d="m0 0l839.0 0l0 100.0l-839.0 0l0 -100.0z" clip-rule="nonzero"/></clipPath><g clip-path="url(#p.0)"><path fill="#000000" fill-opacity="0.0" d="m0 0l839.0 0l0 100.0l-839.0 0z" fill-rule="evenodd"/><path fill="#000000" fill-opacity="0.0" d="m0.007874016 0l838.9921 0l0 100.0l-838.9921 0z" fill-rule="evenodd"/><path fill="#393939" d="m49.39691 92.42062q-9.75 0 -19.265625 -3.546875q-9.515625 -3.5625 -16.96875 -9.859375l10.999999 -14.328125q7.34375 5.953125 13.53125 8.53125q6.203125 2.578125 13.1875 2.578125q4.59375 0 7.796875 -0.90625q3.21875 -0.921875 4.9375 -2.703125q1.71875 -1.78125 1.71875 -4.1875q0 -3.3125 -2.53125 -5.140625q-2.515625 -1.84375 -8.59375 -2.875l-17.65625 -3.09375q-9.75 -1.71875 -15.03125 -7.453125q-5.265625 -5.734375 -5.265625 -14.5625q0 -7.796875 3.953125 -13.40625q3.953125 -5.625 11.34375 -8.609375q7.40625 -2.984375 17.609375 -2.984375q8.9375 0 18.0 3.046875q9.0625 3.03125 15.71875 8.421875l-10.4375 14.5625q-12.390625 -9.515625 -24.65625 -9.515625q-4.015625 0 -6.9375 0.859375q-2.921875 0.859375 -4.46875 2.40625q-1.546875 1.546875 -1.546875 3.71875q0 2.984375 2.234375 4.59375q2.234375 1.609375 7.28125 2.515625l16.625 2.75q11.578125 1.84375 17.59375 7.6875q6.03125 5.84375 6.03125 15.140625q0 8.140625 -4.25 14.046875q-4.234375 5.890625 -12.15625 9.109375q-7.90625 3.203125 -18.796875 3.203125zm44.260468 -1.140625l0 -80.265625l42.296875 0q7.921875 0 14.046875 3.390625q6.140625 3.375 9.6875 9.234375q3.5625 5.84375 3.5625 13.40625q0 7.21875 -3.5625 13.015625q-3.546875 5.796875 -9.75 9.125q-6.1875 3.3125 -13.984375 3.3125l-22.578125 0l0 28.78125l-19.71875 0zm19.71875 -45.0625l20.296875 0q4.34375 0 6.984375 -2.515625q2.640625 -2.53125 2.640625 -6.546875q0 -4.125 -2.640625 -6.703125q-2.640625 -2.578125 -6.984375 -2.578125l-20.296875 0l0 18.34375zm59.967316 45.0625l0 -80.265625l63.28125 0l0 17.09375l-43.5625 0l0 14.4375l28.78125 0l0 16.515625l-28.78125 0l0 15.140625l44.03125 0l0 17.078125l-63.75 0zm69.022675 0l32.90625 -80.265625l22.578125 0l32.453125 80.265625l-21.328125 0l-7.34375 -19.375l-31.296875 0l-7.453125 19.375l-20.515625 0zm33.9375 -35.078125l19.484375 0l-9.625 -25.6875l-9.859375 25.6875zm59.851746 35.078125l0 -80.265625l19.71875 0l0 35.09375l32.4375 -35.09375l23.859375 0l-37.15625 37.734375l39.21875 42.53125l-26.140625 0l-32.21875 -36.796875l0 36.796875l-19.71875 0zm123.818756 1.140625q-9.171875 0 -17.03125 -3.140625q-7.84375 -3.15625 -13.703125 -8.765625q-5.84375 -5.625 -9.109375 -13.140625q-3.265625 -7.515625 -3.265625 -16.21875q0 -8.828125 3.265625 -16.34375q3.265625 -7.515625 9.171875 -13.125q5.90625 -5.625 13.765625 -8.765625q7.859375 -3.15625 16.90625 -3.15625q6.65625 0 13.078125 1.953125q6.421875 1.9375 11.859375 5.4375q5.453125 3.5 9.125 8.3125l-13.3125 13.078125q-4.234375 -5.390625 -9.453125 -8.03125q-5.21875 -2.640625 -11.296875 -2.640625q-4.8125 0 -9.0 1.78125q-4.1875 1.78125 -7.28125 4.875q-3.09375 3.09375 -4.8125 7.34375q-1.71875 4.234375 -1.71875 9.28125q0 4.921875 1.765625 9.109375q1.78125 4.1875 4.9375 7.34375q3.15625 3.140625 7.453125 4.875q4.296875 1.71875 9.34375 1.71875q5.859375 0 10.84375 -2.515625q4.984375 -2.53125 9.0 -7.46875l12.953125 12.734375q-3.671875 4.703125 -9.0625 8.203125q-5.390625 3.484375 -11.703125 5.375q-6.296875 1.890625 -12.71875 1.890625zm41.859467 -1.140625l0 -80.265625l19.71872 0l0 62.84375l42.296875 0l0 17.421875l-62.015594 0zm107.89163 1.265625q-9.0625 0 -16.859375 -3.15625q-7.796875 -3.15625 -13.65625 -8.828125q-5.84375 -5.671875 -9.109375 -13.1875q-3.265625 -7.515625 -3.265625 -16.21875q0 -8.71875 3.265625 -16.21875q3.265625 -7.515625 9.109375 -13.1875q5.859375 -5.6875 13.65625 -8.828125q7.796875 -3.15625 16.859375 -3.15625q9.046875 0 16.84375 3.15625q7.796875 3.140625 13.640625 8.828125q5.859375 5.671875 9.125 13.1875q3.265625 7.5 3.265625 16.21875q0 8.703125 -3.265625 16.21875q-3.265625 7.515625 -9.125 13.1875q-5.84375 5.671875 -13.640625 8.828125q-7.796875 3.15625 -16.84375 3.15625zm0 -18.125q4.8125 0 8.9375 -1.765625q4.125 -1.78125 7.15625 -4.875q3.046875 -3.09375 4.765625 -7.390625q1.71875 -4.3125 1.71875 -9.234375q0 -5.046875 -1.71875 -9.28125q-1.71875 -4.25 -4.765625 -7.34375q-3.03125 -3.09375 -7.15625 -4.875q-4.125 -1.78125 -8.9375 -1.78125q-4.828125 0 -8.953125 1.78125q-4.125 1.78125 -7.171875 4.875q-3.03125 3.09375 -4.75 7.34375q-1.71875 4.234375 -1.71875 9.15625q0 5.046875 1.71875 9.359375q1.71875 4.296875 4.75 7.390625q3.046875 3.09375 7.171875 4.875q4.125 1.765625 8.953125 1.765625zm88.627014 18.0q-11.125 0 -19.328125 -4.40625q-8.1875 -4.421875 -12.671875 -12.5625q-4.46875 -8.140625 -4.46875 -19.140625l0 -45.296875l19.71875 0l0 45.296875q0 5.390625 2.0625 9.46875q2.078125 4.0625 5.90625 6.25q3.84375 2.171875 8.890625 2.171875q5.15625 0 8.875 -2.171875q3.734375 -2.1875 5.796875 -6.25q2.0625 -4.078125 2.0625 -9.46875l0 -45.296875l19.734375 0l0 45.296875q0 10.890625 -4.53125 19.03125q-4.53125 8.140625 -12.734375 12.609375q-8.203125 4.46875 -19.3125 4.46875zm68.44922 -18.5625l12.375 0q4.703125 0 8.765625 -1.71875q4.078125 -1.734375 7.171875 -4.828125q3.09375 -3.09375 4.8125 -7.15625q1.71875 -4.078125 1.71875 -8.78125q0 -4.8125 -1.71875 -8.984375q-1.71875 -4.1875 -4.8125 -7.28125q-3.09375 -3.109375 -7.171875 -4.875q-4.0625 -1.78125 -8.765625 -1.78125l-12.375 0l0 45.40625zm-19.71875 17.421875l0 -80.265625l32.5625 0q8.9375 0 16.609375 3.109375q7.6875 3.09375 13.46875 8.59375q5.796875 5.5 9.0625 12.84375q3.28125 7.328125 3.28125 15.8125q0 8.375 -3.28125 15.609375q-3.265625 7.21875 -9.0625 12.671875q-5.78125 5.4375 -13.46875 8.53125q-7.671875 3.09375 -16.609375 3.09375l-32.5625 0z" fill-rule="nonzero"/></g></svg>